<svg width="128" height="115" viewBox="0 0 128 115" fill="none" xmlns="http://www.w3.org/2000/svg">
<mask id="mask0_3503_27" style="mask-type:luminance" maskUnits="userSpaceOnUse" x="50" y="0" width="78" height="115">
<path d="M53.4648 0.385523C52.3617 0.385523 51.3049 0.629355 50.3647 1.0666C50.3723 1.10667 50.3813 1.1488 50.3986 1.18887L64.5632 34.4937L95.3392 106.862C96.0348 108.497 97.5544 109.639 99.3276 109.866C108.616 111.055 117.314 112.714 125.218 114.763C126.949 115.212 128.447 113.502 127.752 111.866L82.0352 4.36772C81.4149 2.90884 80.2365 1.75736 78.7762 1.07282C77.8306 0.63212 76.7696 0.385523 75.6616 0.385523H53.4648Z" fill="white"/>
</mask>
<g mask="url(#mask0_3503_27)">
<path d="M133.412 -36.3785L-3.69922 60.2224V-36.3785H133.412Z" fill="#FBED22"/>
<path d="M134.391 -36.3785L-3.69922 60.9124V60.2224L133.411 -36.3785H134.391Z" fill="#FBED22"/>
<path d="M135.37 -36.3786L-3.69922 61.6018V60.9124L134.391 -36.3786H135.37Z" fill="#FAED22"/>
<path d="M136.35 -36.3785L-3.69922 62.2919V61.6019L135.37 -36.3785H136.35Z" fill="#F9EC22"/>
<path d="M137.328 -36.3785L-3.69922 62.982V62.2919L136.349 -36.3785H137.328Z" fill="#F8EC23"/>
<path d="M138.308 -36.3785L-3.69922 63.672V62.9819L137.328 -36.3785H138.308Z" fill="#F7EC23"/>
<path d="M139.287 -36.3785L-3.69922 64.3621V63.6721L138.308 -36.3785H139.287Z" fill="#F6EC23"/>
<path d="M140.266 -36.3785L-3.69922 65.0515V64.3621L139.287 -36.3785H140.266Z" fill="#F5EB23"/>
<path d="M141.246 -36.3785L-3.69922 65.7415V65.0515L140.266 -36.3785H141.246Z" fill="#F4EB23"/>
<path d="M142.224 -36.3785L-3.69922 66.4316V65.7415L141.245 -36.3785H142.224Z" fill="#F3EB24"/>
<path d="M143.204 -36.3785L-3.69922 67.1216V66.4316L142.224 -36.3785H143.204Z" fill="#F2EA24"/>
<path d="M144.183 -36.3784L-3.69922 67.8118V67.1217L143.204 -36.3784H144.183Z" fill="#F1EA24"/>
<path d="M145.162 -36.3785L-3.69922 68.5011V67.8117L144.183 -36.3785H145.162Z" fill="#F0EA24"/>
<path d="M146.142 -36.3786L-3.69922 69.1911V68.501L145.162 -36.3786H146.142Z" fill="#EFEA24"/>
<path d="M147.121 -36.3785L-3.69922 69.8812V69.1911L146.142 -36.3785H147.121Z" fill="#EEE925"/>
<path d="M148.1 -36.3785L-3.69922 70.5713V69.8812L147.121 -36.3785H148.1Z" fill="#EDE925"/>
<path d="M149.079 -36.3786L-3.69922 71.2613V70.5712L148.1 -36.3786H149.079Z" fill="#ECE925"/>
<path d="M150.059 -36.3785L-3.69922 71.9508V71.2614L149.079 -36.3785H150.059Z" fill="#EBE825"/>
<path d="M151.038 -36.3786L-3.69922 72.6407V71.9507L150.058 -36.3786H151.038Z" fill="#EAE825"/>
<path d="M152.017 -36.3785L-3.69922 73.3309V72.6408L151.038 -36.3785H152.017Z" fill="#E9E826"/>
<path d="M152.996 -36.3785L-3.69922 74.0209V73.3309L152.017 -36.3785H152.996Z" fill="#E8E726"/>
<path d="M153.976 -36.3785L-3.69922 74.7103V74.0209L152.996 -36.3785H153.976Z" fill="#E7E726"/>
<path d="M154.955 -36.3785L-3.69922 75.4004V74.7103L153.976 -36.3785H154.955Z" fill="#E6E726"/>
<path d="M155.934 -36.3785L-3.69922 76.0905V75.4004L154.954 -36.3785H155.934Z" fill="#E5E727"/>
<path d="M156.913 -36.3785L-3.69922 76.7805V76.0904L155.934 -36.3785H156.913Z" fill="#E4E627"/>
<path d="M157.893 -36.3785L-3.69922 77.4706V76.7805L156.913 -36.3785H157.893Z" fill="#E3E627"/>
<path d="M158.872 -36.3785L-3.69922 78.1599V77.4706L157.892 -36.3785H158.872Z" fill="#E2E627"/>
<path d="M159.851 -36.3785L-3.69922 78.85V78.16L158.872 -36.3785H159.851Z" fill="#E1E527"/>
<path d="M160.831 -36.3785L-3.69922 79.5401V78.85L159.851 -36.3785H160.831Z" fill="#E0E528"/>
<path d="M161.809 -36.3785L-3.69922 80.2302V79.5401L160.83 -36.3785H161.809Z" fill="#DFE528"/>
<path d="M162.789 -36.3785L-3.69922 80.9202V80.2301L161.809 -36.3785H162.789Z" fill="#DEE528"/>
<path d="M163.768 -36.3785L-3.69922 81.6096V80.9202L162.789 -36.3785H163.768Z" fill="#DDE428"/>
<path d="M164.747 -36.3784L-3.69922 82.2997V81.6096L163.768 -36.3784H164.747Z" fill="#DCE428"/>
<path d="M165.727 -36.3785L-3.69922 82.9897V82.2996L164.747 -36.3785H165.727Z" fill="#DBE429"/>
<path d="M166.706 -36.3785L-3.69922 83.6798V82.9897L165.726 -36.3785H166.706Z" fill="#DAE329"/>
<path d="M167.685 -36.3785L-3.69922 84.3699V83.6798L166.706 -36.3785H167.685Z" fill="#D9E329"/>
<path d="M168.665 -36.3785L-3.69922 85.0592V84.3699L167.685 -36.3785H168.665Z" fill="#D8E329"/>
<path d="M169.643 -36.3786L-3.69922 85.7492V85.0592L168.664 -36.3786H169.643Z" fill="#D7E229"/>
<path d="M170.623 -36.3784L-3.69922 86.4394V85.7494L169.643 -36.3784H170.623Z" fill="#D6E22A"/>
<path d="M171.602 -36.3785L-3.69922 87.1294V86.4394L170.623 -36.3785H171.602Z" fill="#D5E22A"/>
<path d="M172.581 -36.3785L-3.69922 87.8188V87.1294L171.602 -36.3785H172.581Z" fill="#D4E22A"/>
<path d="M173.561 -36.3785L-3.69922 88.5089V87.8188L172.581 -36.3785H173.561Z" fill="#D3E12A"/>
<path d="M174.54 -36.3784L-3.69922 89.199V88.5089L173.561 -36.3784H174.54Z" fill="#D2E12A"/>
<path d="M175.519 -36.3785L-3.69922 89.889V89.1989L174.539 -36.3785H175.519Z" fill="#D1E12B"/>
<path d="M176.498 -36.3785L-3.69922 90.579V89.889L175.519 -36.3785H176.498Z" fill="#D0E02B"/>
<path d="M177.478 -36.3785L-3.69922 91.2684V90.579L176.498 -36.3785H177.478Z" fill="#CFE02B"/>
<path d="M178.457 -36.3785L-3.69922 91.9585V91.2684L177.477 -36.3785H178.457Z" fill="#CEE02B"/>
<path d="M179.436 -36.3785L-3.69922 92.6485V91.9585L178.457 -36.3785H179.436Z" fill="#CDE02B"/>
<path d="M180.415 -36.3786L-3.69922 93.3385V92.6485L179.435 -36.3786H180.415Z" fill="#CCDF2C"/>
<path d="M181.394 -36.3785L-3.69922 94.0287V93.3387L180.415 -36.3785H181.394Z" fill="#CBDF2C"/>
<path d="M182.374 -36.3786L-3.69922 94.718V94.0286L181.394 -36.3786H182.374Z" fill="#CADF2C"/>
<path d="M182.511 -35.7854L-3.69922 95.4085V94.7184L182.374 -36.3788H182.511V-35.7854Z" fill="#C9DE2C"/>
<path d="M182.511 -35.0956L-3.69922 96.0984V95.4083L182.511 -35.7857V-35.0956Z" fill="#C8DE2C"/>
<path d="M182.511 -34.4056L-3.69922 96.7884V96.0983L182.511 -35.0957V-34.4056Z" fill="#C7DE2D"/>
<path d="M182.511 -33.7158L-3.69922 97.4782V96.7881L182.511 -34.4058V-33.7158Z" fill="#C6DE2D"/>
<path d="M182.511 -33.0258L-3.69922 98.1682V97.4781L182.511 -33.7159V-33.0258Z" fill="#C5DD2D"/>
<path d="M182.511 -32.3358L-3.69922 98.8582V98.1681L182.511 -33.0259V-32.3358Z" fill="#C4DD2D"/>
<path d="M182.511 -31.6459L-3.69922 99.548V98.858L182.511 -32.336V-31.6459Z" fill="#C3DD2D"/>
<path d="M182.511 -30.9561L-3.69922 100.238V99.5478L182.511 -31.6461V-30.9561Z" fill="#C2DC2E"/>
<path d="M182.511 -30.2661L-3.69922 100.928V100.238L182.511 -30.9561V-30.2661Z" fill="#C1DC2E"/>
<path d="M182.511 -29.5762L-3.69922 101.618V100.928L182.511 -30.2663V-29.5762Z" fill="#C0DC2E"/>
<path d="M182.511 -28.8863L-3.69922 102.308V101.618L182.511 -29.5763V-28.8863Z" fill="#BFDB2E"/>
<path d="M182.511 -28.1964L-3.69922 102.998V102.307L182.511 -28.8865V-28.1964Z" fill="#BEDB2E"/>
<path d="M182.511 -27.5065L-3.69922 103.688V102.997L182.511 -28.1965V-27.5065Z" fill="#BDDB2F"/>
<path d="M182.511 -26.8164L-3.69922 104.378V103.687L182.511 -27.5065V-26.8164Z" fill="#BCDB2F"/>
<path d="M182.511 -26.1266L-3.69922 105.067V104.377L182.511 -26.8167V-26.1266Z" fill="#BBDA2F"/>
<path d="M182.511 -25.4367L-3.69922 105.757V105.067L182.511 -26.1268V-25.4367Z" fill="#BADA2F"/>
<path d="M182.511 -24.7467L-3.69922 106.447V105.757L182.511 -25.4368V-24.7467Z" fill="#B9DA30"/>
<path d="M182.511 -24.0568L-3.69922 107.137V106.447L182.511 -24.7468V-24.0568Z" fill="#B8D930"/>
<path d="M182.511 -23.3669L-3.69922 107.827V107.137L182.511 -24.057V-23.3669Z" fill="#B7D930"/>
<path d="M182.511 -22.677L-3.69922 108.517V107.827L182.511 -23.3671V-22.677Z" fill="#B6D930"/>
<path d="M182.511 -21.9871L-3.69922 109.207V108.517L182.511 -22.6771V-21.9871Z" fill="#B5D930"/>
<path d="M182.511 -21.2972L-3.69922 109.897V109.207L182.511 -21.9873V-21.2972Z" fill="#B4D831"/>
<path d="M182.511 -20.6072L-3.69922 110.587V109.897L182.511 -21.2973V-20.6072Z" fill="#B3D831"/>
<path d="M182.511 -19.9173L-3.69922 111.277V110.587L182.511 -20.6074V-19.9173Z" fill="#B2D831"/>
<path d="M182.511 -19.2273L-3.69922 111.967V111.277L182.511 -19.9174V-19.2273Z" fill="#B1D731"/>
<path d="M182.511 -18.5374L-3.69922 112.657V111.966L182.511 -19.2275V-18.5374Z" fill="#B0D731"/>
<path d="M182.511 -17.8476L-3.69922 113.346V112.656L182.511 -18.5376V-17.8476Z" fill="#AFD732"/>
<path d="M182.511 -17.1576L-3.69922 114.036V113.346L182.511 -17.8476V-17.1576Z" fill="#AED732"/>
<path d="M182.511 -16.4677L-3.69922 114.726V114.036L182.511 -17.1577V-16.4677Z" fill="#ADD632"/>
<path d="M182.511 -15.7778L-3.69922 115.416V114.726L182.511 -16.4679V-15.7778Z" fill="#ACD632"/>
<path d="M182.511 -15.0879L-3.69922 116.106V115.416L182.511 -15.7779V-15.0879Z" fill="#ABD632"/>
<path d="M182.511 -14.398L-3.69922 116.796V116.106L182.511 -15.0881V-14.398Z" fill="#AAD533"/>
<path d="M182.511 -13.708L-3.69922 117.486V116.796L182.511 -14.398V-13.708Z" fill="#A9D533"/>
<path d="M182.511 -13.0181L-3.69922 118.176V117.486L182.511 -13.7082V-13.0181Z" fill="#A8D533"/>
<path d="M182.511 -12.3282L-3.69922 118.866V118.176L182.511 -13.0183V-12.3282Z" fill="#A7D433"/>
<path d="M182.511 -11.6382L-3.69922 119.556V118.866L182.511 -12.3283V-11.6382Z" fill="#A6D433"/>
<path d="M182.511 -10.9484L-3.69922 120.246V119.556L182.511 -11.6384V-10.9484Z" fill="#A5D434"/>
<path d="M182.511 -10.2584L-3.69922 120.936V120.245L182.511 -10.9485V-10.2584Z" fill="#A4D434"/>
<path d="M182.511 -9.5685L-3.69922 121.625V120.935L182.511 -10.2586V-9.5685Z" fill="#A3D334"/>
<path d="M182.511 -8.87854L-3.69922 122.315V121.625L182.511 -9.5686V-8.87854Z" fill="#A2D334"/>
<path d="M182.511 -8.18863L-3.69922 123.005V122.315L182.511 -8.87869V-8.18863Z" fill="#A1D334"/>
<path d="M182.511 -7.49868L-3.69922 123.695V123.005L182.511 -8.18874V-7.49868Z" fill="#A0D235"/>
<path d="M182.511 -6.80878L-3.69922 124.385V123.695L182.511 -7.49884V-6.80878Z" fill="#9FD235"/>
<path d="M182.511 -6.11881L-3.69922 125.075V124.385L182.511 -6.80887V-6.11881Z" fill="#9ED235"/>
<path d="M182.511 -5.42896L-3.69922 125.765V125.075L182.511 -6.11902V-5.42896Z" fill="#9DD235"/>
<path d="M182.511 -4.739L-3.69922 126.455V125.765L182.511 -5.42906V-4.739Z" fill="#9CD135"/>
<path d="M182.511 -4.04906L-3.69922 127.145V126.455L182.511 -4.73912V-4.04906Z" fill="#9BD136"/>
<path d="M182.511 -3.35921L-3.69922 127.835V127.145L182.511 -4.04927V-3.35921Z" fill="#9AD136"/>
<path d="M182.511 -2.66922L-3.69922 128.525V127.835L182.511 -3.35928V-2.66922Z" fill="#99D036"/>
<path d="M182.511 -1.97928L-3.69922 129.215V128.525L182.511 -2.66934V-1.97928Z" fill="#98D036"/>
<path d="M182.511 -1.28943L-3.69922 129.905V129.214L182.511 -1.97949V-1.28943Z" fill="#97D036"/>
<path d="M182.511 -0.599476L-3.69922 130.594V129.904L182.511 -1.28954V-0.599476Z" fill="#96CF37"/>
<path d="M182.511 0.0904198L-3.69922 131.284V130.594L182.511 -0.599641V0.0904198Z" fill="#95CF37"/>
<path d="M182.511 0.780392L-3.69922 131.974V131.284L182.511 0.090331V0.780392Z" fill="#94CF37"/>
<path d="M182.511 1.47024L-3.69922 132.664V131.974L182.511 0.780181V1.47024Z" fill="#93CF37"/>
<path d="M182.511 2.1602L-3.69922 133.354V132.664L182.511 1.47014V2.1602Z" fill="#92CE38"/>
<path d="M182.511 2.85014L-3.69922 134.044V133.354L182.511 2.16008V2.85014Z" fill="#91CE38"/>
<path d="M182.511 3.53999L-3.69922 134.734V134.044L182.511 2.84993V3.53999Z" fill="#90CE38"/>
<path d="M182.511 4.22995L-3.69922 135.424V134.734L182.511 3.53989V4.22995Z" fill="#8FCD38"/>
<path d="M182.511 4.91993L-3.69922 136.114V135.424L182.511 4.22987V4.91993Z" fill="#8ECD38"/>
<path d="M182.511 5.60981L-3.69922 136.804V136.114L182.511 4.91975V5.60981Z" fill="#8DCD39"/>
<path d="M182.511 6.29977L-3.69922 137.494V136.804L182.511 5.60971V6.29977Z" fill="#8CCD39"/>
<path d="M182.511 6.98964L-3.69922 138.184V137.494L182.511 6.29957V6.98964Z" fill="#8ACC39"/>
<path d="M182.511 7.67959L-3.69922 138.874V138.184L182.511 6.98953V7.67959Z" fill="#89CC39"/>
<path d="M182.511 8.36944L-3.69922 139.563V138.873L182.511 7.67938V8.36944Z" fill="#88CC39"/>
<path d="M182.511 9.05943L-3.69922 140.253V139.563L182.511 8.36937V9.05943Z" fill="#87CB3A"/>
<path d="M182.511 9.74936L-3.69922 140.943V140.253L182.511 9.05929V9.74936Z" fill="#86CB3A"/>
<path d="M182.511 10.4393L-3.69922 141.633V140.943L182.511 9.74925V10.4393Z" fill="#85CB3A"/>
<path d="M182.511 11.1292L-3.69922 142.323V141.633L182.511 10.4391V11.1292Z" fill="#84CB3A"/>
<path d="M182.511 11.8192L-3.69922 143.013V142.323L182.511 11.1291V11.8192Z" fill="#83CA3A"/>
<path d="M182.511 12.509L-3.69922 143.703V143.013L182.511 11.819V12.509Z" fill="#82CA3B"/>
<path d="M182.511 13.199L-3.69922 144.393V143.703L182.511 12.5089V13.199Z" fill="#81CA3B"/>
<path d="M182.511 13.8889L-3.69922 145.083V144.393L182.511 13.1988V13.8889Z" fill="#80C93B"/>
<path d="M182.511 14.5788L-3.69922 145.773V145.083L182.511 13.8887V14.5788Z" fill="#7FC93B"/>
<path d="M182.511 15.2687L-3.69922 146.463V145.773L182.511 14.5786V15.2687Z" fill="#7EC93B"/>
<path d="M182.511 15.9586L-3.69922 147.153V146.463L182.511 15.2686V15.9586Z" fill="#7DC83C"/>
<path d="M182.511 16.6486L-3.69922 147.843V147.152L182.511 15.9585V16.6486Z" fill="#7CC83C"/>
<path d="M182.511 17.3385L-3.69922 148.532V147.842L182.511 16.6484V17.3385Z" fill="#7BC83C"/>
<path d="M182.511 18.0283L-3.69922 149.222V148.532L182.511 17.3383V18.0283Z" fill="#7AC83C"/>
<path d="M182.511 18.7183L-3.69922 149.912V149.222L182.511 18.0282V18.7183Z" fill="#79C73C"/>
<path d="M182.511 19.4082L-3.69922 150.602V149.912L182.511 18.7182V19.4082Z" fill="#78C73D"/>
<path d="M182.511 20.0982L-3.69922 151.292V150.602L182.511 19.4081V20.0982Z" fill="#77C73D"/>
<path d="M182.511 20.7878L-3.69024 151.975H-3.69922V151.292L182.511 20.0978V20.7878Z" fill="#76C63D"/>
<path d="M182.512 21.4781L-2.70996 151.976H-3.68945L182.512 20.788V21.4781Z" fill="#75C63D"/>
<path d="M182.512 22.168L-1.73047 151.976H-2.70996L182.512 21.4779V22.168Z" fill="#74C63D"/>
<path d="M182.512 22.8578L-0.75214 151.975H-1.73096L182.512 22.1678V22.8578Z" fill="#73C63E"/>
<path d="M182.513 23.5478L0.228515 151.975H-0.750977L182.513 22.8577V23.5478Z" fill="#72C53E"/>
<path d="M182.513 24.2377L1.20801 151.975H0.228516L182.513 23.5477V24.2377Z" fill="#71C53E"/>
<path d="M182.51 24.9276L2.18387 151.976H1.20508L182.51 24.2376V24.9276Z" fill="#70C53E"/>
<path d="M182.512 25.6176L3.16553 151.976H2.18604L182.512 24.9275V25.6176Z" fill="#6FC43F"/>
<path d="M182.511 26.3075L4.14335 151.975H3.16455L182.511 25.6174V26.3075Z" fill="#6EC43F"/>
<path d="M182.512 26.9974L5.12402 151.975H4.14453L182.512 26.3074V26.9974Z" fill="#6DC43F"/>
<path d="M182.511 27.6873L6.10255 151.976H5.12305L182.511 26.9972V27.6873Z" fill="#6CC43F"/>
<path d="M182.512 28.3772L7.08182 151.976H6.10303L182.512 27.6871V28.3772Z" fill="#6BC33F"/>
<path d="M182.511 29.0671L8.06006 151.975H7.08057L182.511 28.3771V29.0671Z" fill="#6AC340"/>
<path d="M182.511 29.7571L9.04004 151.975H8.06055L182.511 29.067V29.7571Z" fill="#69C340"/>
<path d="M182.513 30.447L10.0213 151.975H9.04248L182.513 29.7569V30.447Z" fill="#68C240"/>
<path d="M182.512 31.1369L10.9995 151.976H10.02L182.512 30.4469V31.1369Z" fill="#67C240"/>
<path d="M182.511 31.8268L11.9775 151.976H10.998L182.511 31.1367V31.8268Z" fill="#66C240"/>
<path d="M182.511 32.5167L12.9563 151.975H11.9775L182.511 31.8267V32.5167Z" fill="#65C141"/>
<path d="M182.512 33.2067L13.937 151.975H12.9575L182.512 32.5166V33.2067Z" fill="#64C141"/>
<path d="M182.512 33.8966L14.9165 151.975H13.937L182.512 33.2065V33.8966Z" fill="#63C141"/>
<path d="M182.511 34.5866L15.8948 151.976H14.916L182.511 33.8965V34.5866Z" fill="#62C141"/>
<path d="M182.511 35.2765L16.874 151.976H15.8945L182.511 34.5864V35.2765Z" fill="#61C041"/>
<path d="M182.512 35.9664L17.8533 151.976H16.8745L182.512 35.2764V35.9664Z" fill="#60C042"/>
<path d="M182.511 36.6563L18.8325 151.975H17.853L182.511 35.9662V36.6563Z" fill="#5FC042"/>
<path d="M182.512 37.3462L19.8125 151.975H18.833L182.512 36.6561V37.3462Z" fill="#5EBF42"/>
<path d="M182.51 38.0362L20.7893 151.976H19.8105L182.51 37.3462V38.0362Z" fill="#5DBF42"/>
<path d="M182.512 38.7261L21.771 151.976H20.7915L182.512 38.036V38.7261Z" fill="#5CBF42"/>
<path d="M182.511 39.416L22.7495 151.975H21.77L182.511 38.7259V39.416Z" fill="#5BBF43"/>
<path d="M182.512 40.1059L23.7288 151.975H22.75L182.512 39.4158V40.1059Z" fill="#5ABE43"/>
<path d="M182.511 40.7959L24.708 151.975H23.7285L182.511 40.1058V40.7959Z" fill="#59BE43"/>
<path d="M182.511 41.4858L25.6875 151.976H24.708L182.511 40.7957V41.4858Z" fill="#58BE43"/>
<path d="M182.51 42.1757L26.6648 151.976H25.686L182.51 41.4856V42.1757Z" fill="#57BD43"/>
<path d="M182.511 42.8656L27.6455 151.975H26.666L182.511 42.1756V42.8656Z" fill="#56BD44"/>
<path d="M182.512 43.5556L28.626 151.975H27.6465L182.512 42.8655V43.5556Z" fill="#55BD44"/>
<path d="M182.512 44.2455L29.6048 151.976H28.626L182.512 43.5554V44.2455Z" fill="#54BC44"/>
<path d="M182.51 44.9353L30.582 151.976H29.6025L182.51 44.2453V44.9353Z" fill="#53BC44"/>
<path d="M182.511 45.6252L31.5623 151.975H30.5835L182.511 44.9352V45.6252Z" fill="#52BC44"/>
<path d="M182.51 46.3152L32.541 151.975H31.5615L182.51 45.6252V46.3152Z" fill="#51BC45"/>
<path d="M182.512 47.0051L33.522 151.975H32.5425L182.512 46.315V47.0051Z" fill="#50BB45"/>
<path d="M182.513 47.695L34.5017 151.976H33.5229L182.513 47.005V47.695Z" fill="#4FBB45"/>
<path d="M182.511 48.3849L35.4795 151.976H34.5L182.511 47.6949V48.3849Z" fill="#4EBB45"/>
<path d="M182.512 49.0749L36.46 151.975H35.4805L182.512 48.3848V49.0749Z" fill="#4DBA45"/>
<path d="M182.513 49.7648L37.4397 151.975H36.4609L182.513 49.0748V49.7648Z" fill="#4CBA46"/>
<path d="M182.512 50.4547L38.418 151.975H37.4385L182.512 49.7647V50.4547Z" fill="#4BBA46"/>
<path d="M182.512 51.1447L39.3979 151.976H38.4185L182.512 50.4546V51.1447Z" fill="#4ABA46"/>
<path d="M182.514 51.8346L40.3782 151.976H39.3994L182.514 51.1445V51.8346Z" fill="#49B946"/>
<path d="M182.511 52.5245L41.3545 151.975H40.375L182.511 51.8345V52.5245Z" fill="#48B947"/>
<path d="M182.511 53.2145L42.3333 151.975H41.3545L182.511 52.5244V53.2145Z" fill="#47B947"/>
<path d="M182.512 53.9044L43.314 151.975H42.3345L182.512 53.2143V53.9044Z" fill="#46B847"/>
<path d="M182.512 54.5943L44.2939 151.976H43.3145L182.512 53.9043V54.5943Z" fill="#45B847"/>
<path d="M182.51 55.2841L45.2708 151.976H44.292L182.51 54.5941V55.2841Z" fill="#44B847"/>
<path d="M182.512 55.9741L46.252 151.975H45.2725L182.512 55.284V55.9741Z" fill="#43B848"/>
<path d="M182.511 56.664L47.231 151.975H46.2515L182.511 55.9739V56.664Z" fill="#42B748"/>
<path d="M182.512 57.354L48.2102 151.975H47.2314L182.512 56.6639V57.354Z" fill="#41B748"/>
<path d="M182.512 58.0439L49.1899 151.976H48.2104L182.512 57.3539V58.0439Z" fill="#40B748"/>
<path d="M182.514 58.7339L50.1709 151.976H49.1914L182.514 58.0438V58.7339Z" fill="#3FB648"/>
<path d="M182.511 59.4238L51.1473 151.975H50.1685L182.511 58.7337V59.4238Z" fill="#3EB649"/>
<path d="M182.51 60.1136L52.126 151.975H51.1465L182.51 59.4236V60.1136Z" fill="#3DB649"/>
<path d="M182.509 60.8036L53.1038 151.976H52.125L182.509 60.1136V60.8036Z" fill="#3CB549"/>
<path d="M182.511 61.4936L54.085 151.976H53.1055L182.511 60.8035V61.4936Z" fill="#3BB549"/>
<path d="M182.512 62.1834L55.0654 151.976H54.0859L182.512 61.4934V62.1834Z" fill="#3AB549"/>
<path d="M182.511 62.8733L56.0433 151.975H55.0645L182.511 62.1832V62.8733Z" fill="#39B54A"/>
<path d="M182.513 63.5633L57.0244 151.975H56.0449L182.513 62.8732V63.5633Z" fill="#38B44A"/>
<path d="M182.51 64.2532L58.0015 151.976H57.022L182.51 63.5631V64.2532Z" fill="#37B44A"/>
<path d="M58.0029 151.975L182.512 64.2528V151.975H58.0029Z" fill="#37B44A"/>
</g>
<mask id="mask1_3503_27" style="mask-type:luminance" maskUnits="userSpaceOnUse" x="0" y="0" width="79" height="115">
<path d="M53.4648 0.385594C52.3616 0.385594 51.3048 0.628035 50.3647 1.06528C48.8968 1.74499 47.7115 2.89648 47.0905 4.35605L0.911378 112.609C0.404363 113.799 1.4999 115.051 2.75984 114.715C11.0607 112.509 20.2643 110.736 30.1304 109.491C31.6977 109.293 33.0412 108.284 33.656 106.844L64.5632 34.3894L78.7762 1.0715C77.8305 0.63149 76.7695 0.385594 75.6615 0.385594H53.4648Z" fill="white"/>
</mask>
<g mask="url(#mask1_3503_27)">
<path d="M-55.9873 -38.1572H135.168V153.593H-55.9873V-38.1572Z" fill="#0071BB"/>
<path d="M135.859 92.0207V-38.8479H-56.6778V54.8525H-57.812C-56.1984 58.8596 -54.3859 62.801 -52.3771 66.6624C-44.3409 82.1084 -33.1541 96.2689 -18.9135 108.135C9.56712 131.866 44.8703 141.929 78.9232 139.013C95.9496 137.555 112.664 132.852 128.057 124.991C131.905 123.026 135.67 120.863 139.337 118.505H135.859V92.0207Z" fill="#0071BB"/>
<path d="M135.857 90.513V-38.8478H-56.6784V-41.7586C-57.0603 -40.7612 -57.4285 -39.7596 -57.7843 -38.7552H-56.6797V42.0136H-59.8096C-57.4216 50.1092 -54.2476 58.0122 -50.2999 65.6001C-42.4046 80.7747 -31.4139 94.6865 -17.4234 106.344C10.5578 129.659 45.2407 139.546 78.6967 136.68C95.4248 135.248 111.845 130.628 126.968 122.905C130.749 120.975 134.448 118.85 138.051 116.532H135.857V90.513Z" fill="#0172BC"/>
<path d="M135.857 89.0052V-38.8483H-54.486V-40.9046C-54.8604 -39.9245 -55.2223 -38.9408 -55.5719 -37.9544C-56.2702 -35.9809 -56.9181 -33.995 -57.5163 -31.998H-56.6798V41.372H-57.5605C-55.2154 49.3226 -52.098 57.0847 -48.2208 64.5372C-40.4671 79.441 -29.6726 93.1041 -15.9314 104.553C11.5496 127.453 45.6136 137.162 78.4722 134.349C94.9011 132.941 111.029 128.404 125.882 120.819C129.594 118.923 133.228 116.836 136.766 114.56H135.857V89.0052Z" fill="#0274BD"/>
<path d="M135.858 87.4975V-38.848H-51.1508V-42.9263C-52.7216 -39.1057 -54.0927 -35.2271 -55.2663 -31.3057C-59.96 -15.6186 -61.4852 0.759926 -59.9338 16.8746C-56.8302 49.1046 -41.4201 80.2805 -14.4385 102.763C12.5439 125.246 45.9882 134.778 78.2493 132.016C94.3791 130.635 110.214 126.18 124.797 118.733C128.442 116.871 132.009 114.822 135.484 112.588C137.221 111.47 138.935 110.307 140.623 109.097H135.858V87.4975Z" fill="#0375BE"/>
<path d="M135.859 85.9898V-38.8479H-48.9789V-42.0184C-50.5207 -38.269 -51.8663 -34.4622 -53.0184 -30.6133C-57.6251 -15.2164 -59.122 0.858196 -57.5995 16.6751C-54.5533 48.3076 -39.4285 78.9061 -12.9463 100.973C13.5359 123.039 46.3614 132.395 78.0249 129.684C93.8564 128.328 109.398 123.956 123.71 116.646C127.288 114.819 130.79 112.808 134.199 110.615C135.905 109.519 137.587 108.376 139.244 107.189H135.859V85.9898Z" fill="#0476BE"/>
<path d="M135.859 84.4821V-38.8483H-46.8063V-41.1112C-48.3191 -37.4323 -49.6398 -33.6973 -50.7692 -29.921C-55.2895 -14.8148 -56.758 0.957219 -55.2639 16.4751C-52.2757 47.5114 -37.4362 77.5324 -11.4534 99.1821C14.5287 120.832 46.7352 130.012 77.8013 127.352C93.3336 126.022 108.582 121.732 122.624 114.56C126.135 112.768 129.571 110.795 132.916 108.643C134.589 107.567 136.239 106.447 137.865 105.281H135.859V84.4821Z" fill="#0477BF"/>
<path d="M135.858 82.9743V-38.8482H-44.6359V-40.2034C-46.1196 -36.5956 -47.4148 -32.9325 -48.5228 -29.2287C-52.956 -14.4134 -54.3963 1.05542 -52.9312 16.2749C-50.0003 46.7144 -35.446 76.1579 -9.96267 97.3917C15.52 118.626 47.1062 127.629 77.5748 125.02C92.8094 123.715 107.764 119.508 121.537 112.474C124.98 110.716 128.349 108.781 131.63 106.671C133.27 105.615 134.89 104.516 136.485 103.374H135.858V82.9743Z" fill="#0579C0"/>
<path d="M135.858 81.4666V-38.848H-42.4643V-39.2963C-43.9183 -35.7589 -45.1886 -32.1677 -46.2752 -28.5364C-50.6214 -14.0111 -52.0333 1.15373 -50.5965 16.0754C-47.723 45.9175 -33.4547 74.7842 -8.47146 95.6015C16.5118 116.419 47.4791 125.245 77.3502 122.687C92.2857 121.409 106.948 117.284 120.45 110.388C127.201 106.94 133.663 102.8 139.723 97.9764H135.858V81.4666Z" fill="#067AC1"/>
<path d="M135.858 79.9588V-38.8478H-38.0178V-43.547C-38.8212 -41.8422 -39.5796 -40.1216 -40.2925 -38.3885C-41.7175 -34.9215 -42.9622 -31.4021 -44.0267 -27.8441C-48.2859 -13.6096 -49.6702 1.25266 -48.2624 15.8753C-45.4462 45.1205 -31.4625 73.4098 -6.97937 93.8113C17.5045 114.212 47.8522 122.862 77.1257 120.356C91.7629 119.102 106.131 115.06 119.363 108.302C125.979 104.923 132.312 100.866 138.251 96.1384H135.858V79.9588Z" fill="#077BC2"/>
<path d="M135.858 78.4512V-38.8483H-35.8925V-42.5341C-36.68 -40.8639 -37.4225 -39.1791 -38.1209 -37.4812C-39.5169 -34.0848 -40.7361 -30.6372 -41.7791 -27.1517C-45.9513 -13.2074 -47.3072 1.351 -45.9278 15.6752C-43.1696 44.3243 -29.4712 72.0361 -5.48746 92.0204C18.4963 112.005 48.2251 120.479 76.9011 118.023C91.2391 116.796 105.315 112.836 118.277 106.216C124.758 102.906 130.961 98.9314 136.779 94.3006H135.858V78.4512Z" fill="#087CC3"/>
<path d="M135.858 76.9435V-38.848H-33.768V-41.5212C-34.5382 -39.8862 -35.2656 -38.236 -35.9495 -36.5734C-37.3165 -33.2481 -38.5101 -29.8723 -39.5317 -26.4593C-43.6168 -12.8058 -44.9445 1.44932 -43.5941 15.4758C-40.8932 43.5274 -27.4801 70.6617 -3.99576 90.2302C19.4886 109.799 48.5977 118.096 76.6763 115.691C90.7159 114.489 104.498 110.612 117.19 104.13C123.536 100.889 129.61 96.9968 135.307 92.4627C136.731 91.3292 138.132 90.1556 139.508 88.9419H135.858V76.9435Z" fill="#097EC3"/>
<path d="M135.858 75.4358V-3.11498V-38.8478H-31.6418V-40.5084C-32.3961 -38.9079 -33.1075 -37.2929 -33.7769 -35.6662C-35.1149 -32.4113 -36.283 -29.1074 -37.2825 -25.7669C-41.2813 -12.4036 -42.5806 1.54832 -41.2585 15.2757C-38.6149 42.7305 -25.4878 69.288 -2.50358 88.4399C20.4813 107.592 48.9709 115.712 76.4526 113.359C90.1931 112.183 103.682 108.388 116.104 102.044C122.315 98.8717 128.26 95.0622 133.836 90.6248C135.23 89.5154 136.601 88.3667 137.947 87.1793H135.858V75.4358Z" fill="#0A7FC4"/>
<path d="M135.859 73.9279V-2.91526V-38.8477H-29.5156V-39.4963C-30.2534 -37.9297 -30.9497 -36.3499 -31.6045 -34.7584C-32.9135 -31.5747 -34.056 -28.3427 -35.0341 -25.0747C-38.9458 -12.0021 -40.2168 1.64651 -38.9238 15.0755C-36.3376 41.9335 -23.4957 67.9135 -1.0109 86.6496C21.4739 105.385 49.3445 113.329 76.2288 111.027C89.6709 109.876 102.866 106.163 115.018 99.957C121.094 96.8541 126.91 93.1282 132.364 88.7868C135.092 86.6164 137.73 84.292 140.265 81.8157H135.859V73.9279Z" fill="#0B80C5"/>
<path d="M135.857 72.4202V-2.71541V-38.8482H-25.1054V-43.0355C-28.3174 -37.0232 -30.8753 -30.7732 -32.788 -24.3824C-36.6127 -11.5999 -37.8554 1.74482 -36.5906 14.8761C-34.0624 41.1373 -21.5059 66.5398 0.47954 84.8587C22.4649 103.178 49.716 110.946 76.0027 108.695C89.1457 107.569 102.048 103.939 113.93 97.8712C119.871 94.8374 125.558 91.1936 130.891 86.9489C133.558 84.8269 136.136 82.5543 138.615 80.1325H135.857V72.4202Z" fill="#0B81C6"/>
<path d="M135.857 70.9125V-2.51559V-38.848H-23.0322V-41.9191C-26.1717 -36.0435 -28.6715 -29.9358 -30.54 -23.69C-34.2777 -11.1984 -35.4927 1.84378 -34.257 14.676C-31.7854 40.3403 -19.5148 65.1654 1.97115 83.0684C23.4564 100.971 50.0885 108.562 75.7778 106.363C88.6224 105.262 101.231 101.715 112.843 95.7853C118.65 92.8198 124.206 89.259 129.418 85.111C132.025 83.0373 134.545 80.8159 136.967 78.4493H135.857V70.9125Z" fill="#0C82C7"/>
<path d="M135.857 69.4047V-2.31579V-38.8478H-20.9587V-40.8027C-24.0256 -35.0639 -26.4667 -29.0978 -28.2924 -22.9977C-31.9431 -10.7969 -33.1298 1.94203 -31.9223 14.4758C-29.5088 39.5434 -17.5228 63.7917 3.46305 81.2782C24.4489 98.7647 50.4614 106.179 75.5531 104.03C88.0987 102.956 100.414 99.4906 111.756 93.6986C117.427 90.803 122.855 87.325 127.946 83.2731C130.492 81.2471 132.954 79.0781 135.319 76.7661C136.503 75.6105 137.662 74.4189 138.795 73.1922H135.857V69.4047Z" fill="#0D84C7"/>
<path d="M135.856 67.897V-2.11602V-38.8484H-18.8863V-39.6862C-21.88 -34.0842 -24.2632 -28.2605 -26.0453 -22.3054C-29.6089 -10.3947 -30.7666 2.04027 -29.5889 14.2763C-27.2327 38.7471 -15.532 62.4172 4.95377 79.4879C45.9267 113.628 106.527 108.439 140.308 67.897H135.856Z" fill="#0E85C8"/>
<path d="M135.858 66.3893V-1.91543V-38.8481H-14.509V-42.6272C-15.3138 -41.2892 -16.0812 -39.9367 -16.8113 -38.5704C-19.7318 -33.1045 -22.0576 -27.423 -23.7956 -21.613C-27.2728 -9.99314 -28.4022 2.13931 -27.2528 14.0763C-24.9547 37.9502 -13.5392 61.0435 6.44713 77.697C46.4205 111.005 105.542 105.942 138.5 66.3893H135.858Z" fill="#0F86C9"/>
<path d="M135.86 64.8815V-1.7157V-38.848H-12.4913V-41.41C-13.276 -40.1052 -14.0241 -38.7865 -14.7363 -37.454C-17.5836 -32.1255 -19.8506 -26.5857 -21.5457 -20.9208C-24.936 -9.59101 -26.037 2.2375 -24.9166 13.8761C-22.6751 37.1532 -11.5457 59.6691 7.94127 75.9067C46.9151 108.382 104.559 103.446 136.693 64.8815H135.86Z" fill="#0F87CA"/>
<path d="M134.881 63.3739C136.838 61.0253 138.651 58.6042 140.322 56.1216H135.857V-38.8477H-10.4784V-40.1919C-11.2423 -38.9209 -11.9718 -37.6354 -12.6653 -36.3375C-15.4401 -31.1458 -17.6491 -25.7475 -19.3 -20.2284C-22.6032 -9.18939 -23.6766 2.33657 -22.5845 13.676C-20.4011 36.3563 -9.55689 58.2954 9.43062 74.1165C47.4049 105.759 103.571 100.949 134.881 63.3739Z" fill="#1088CA"/>
<path d="M133.07 61.8662C134.976 59.5797 136.742 57.2222 138.369 54.8045H135.856V-38.8482H-6.12661V-42.6446C-7.75403 -40.2269 -9.24191 -37.7492 -10.593 -35.2217C-13.2946 -30.1661 -15.4456 -24.9101 -17.0537 -19.536C-20.2698 -8.78716 -21.3143 2.43486 -20.2512 13.4766C-18.125 35.5601 -7.56614 56.921 10.9213 72.3263C47.8967 103.135 102.585 98.4528 133.07 61.8662Z" fill="#1189CB"/>
<path d="M131.265 60.3584C133.119 58.1335 134.836 55.8401 136.42 53.4881H135.859V-38.848H-4.17065V-41.3279C-5.75386 -38.9752 -7.20169 -36.5644 -8.5162 -34.1053C-11.1445 -29.1864 -13.2375 -24.0728 -14.8021 -18.8437C-17.9312 -8.38569 -18.948 2.53309 -17.9133 13.2764C-15.8444 34.7631 -5.57082 55.5473 12.4172 70.5353C48.3924 100.513 101.603 95.9558 131.265 60.3584Z" fill="#128BCC"/>
<path d="M129.452 58.8506C133.058 54.5244 136.133 49.9316 138.689 45.1495H135.857V-31.1197H138.885C137.652 -33.4903 136.297 -35.8127 134.822 -38.0749C134.085 -39.2063 133.318 -40.3233 132.521 -41.4237V-38.8478H-2.22017V-40.0104C-3.75986 -37.724 -5.16763 -35.3803 -6.44552 -32.9889C-9.00063 -28.2067 -11.0356 -23.2347 -12.5566 -18.1514C-15.5987 -7.98348 -16.5872 2.63206 -15.5815 13.0763C-13.57 33.9661 -3.58233 54.1728 13.9062 68.745C48.8827 97.8894 100.615 93.4596 129.452 58.8506Z" fill="#138CCD"/>
<path d="M127.643 57.3429C131.145 53.1404 134.134 48.6788 136.616 44.0334H135.857V-30.0564H136.807C134.41 -34.6638 131.543 -39.0784 128.214 -43.2264V-38.8484H2.07067V-41.983C1.25973 -40.9013 0.479856 -39.8044 -0.267543 -38.6936C-1.76303 -36.4722 -3.13073 -34.1954 -4.37202 -31.8724C-6.8539 -27.2271 -8.83085 -22.3973 -10.3084 -17.4591C-13.2641 -7.58196 -14.2243 2.73034 -13.2468 12.8769C-11.2934 33.1699 -1.59034 52.7991 15.3981 66.9548C49.3757 95.2661 99.6289 90.9627 127.643 57.3429Z" fill="#138DCE"/>
<path d="M125.835 55.8352C132.633 47.6774 137.438 38.5138 140.306 28.9268H135.859V-15.0944H140.333C138.926 -19.8655 137.055 -24.5226 134.729 -28.9938C132.403 -33.4651 129.621 -37.7499 126.389 -41.7763V-38.8482H6.41185V-43.6745C-20.7784 -11.0438 -16.0861 37.6856 16.8913 65.1645C49.8694 92.6428 98.6451 88.4665 125.835 55.8352Z" fill="#148ECE"/>
<path d="M124.024 54.3275C130.616 46.417 135.275 37.5304 138.057 28.2349H135.856V-14.4532H138.082C136.718 -19.0792 134.904 -23.5953 132.648 -27.9312C130.393 -32.2664 127.695 -36.422 124.561 -40.3262V-38.8479H8.21922V-42.167C-18.1469 -10.5249 -13.5969 36.7277 18.3816 63.3736C50.3602 90.0203 97.6577 85.9697 124.024 54.3275Z" fill="#158FCF"/>
<path d="M122.213 52.8198C134.984 37.4933 140.268 18.3856 138.486 -0.116284C137.595 -9.36758 134.939 -18.4676 130.568 -26.8679C128.383 -31.0684 125.769 -35.0934 122.734 -38.8753V-38.8477H10.0272V-40.6595C-15.5149 -10.0058 -11.1072 35.7699 19.8718 61.5835C50.8509 87.397 96.6708 83.4735 122.213 52.8198Z" fill="#1690D0"/>
<path d="M120.407 51.312C132.766 36.4794 137.88 17.9885 136.156 0.0834515C135.294 -8.86944 132.722 -17.6759 128.493 -25.8054C126.378 -29.8698 123.849 -33.7657 120.911 -37.4253C119.442 -39.2558 117.872 -41.0269 116.199 -42.7303V-38.8483H11.8404V-39.1515C-12.8776 -9.48697 -8.61216 34.8119 21.3674 59.7931C51.3476 84.7736 95.6893 80.9765 120.407 51.312Z" fill="#1791D0"/>
<path d="M118.597 49.8042C130.544 35.4662 135.486 17.5915 133.82 0.283191C132.987 -8.37129 130.501 -16.8842 126.413 -24.7422C124.368 -28.6719 121.923 -32.4372 119.084 -35.9753C117.664 -37.7443 116.145 -39.4567 114.529 -41.1035V-38.8482H18.3432V-42.7267C16.7095 -41.1311 15.1422 -39.436 13.6488 -37.6442C-10.2452 -8.96811 -6.12203 33.8546 22.8587 58.0028C51.8386 82.1509 94.7022 78.4803 118.597 49.8042Z" fill="#1792D1"/>
<path d="M116.787 48.2966C128.322 34.4531 133.095 17.1946 131.486 0.483103C130.681 -7.87298 128.281 -16.0923 124.334 -23.6796C122.36 -27.4732 119.999 -31.1093 117.258 -34.5251C115.887 -36.2334 114.421 -37.8863 112.86 -39.4765V-38.8479H19.9909V-41.0438C18.4139 -39.5027 16.9005 -37.8663 15.4582 -36.136C-7.61169 -8.44907 -3.63087 32.8968 24.3503 56.2119C52.3314 79.5277 93.7167 75.9835 116.787 48.2966Z" fill="#1893D2"/>
<path d="M114.979 46.7888C137.226 20.0904 133.386 -19.7787 106.405 -42.2614V-38.8484H26.3799V-43.5441C23.1064 -40.9393 20.0498 -37.9656 17.2688 -34.6285C-4.97766 -7.93012 -1.13844 31.939 25.8432 54.4217C52.8255 76.9044 92.7326 73.4873 114.979 46.7888Z" fill="#1994D3"/>
<path d="M113.17 45.2812C134.593 19.5719 130.896 -18.821 104.913 -40.4707V-38.8481H27.852V-41.7058C24.7001 -39.1976 21.7568 -36.3344 19.0787 -33.1204C-2.34372 -7.4111 1.35321 30.9811 27.3353 52.6315C53.3181 74.2812 91.7477 70.9904 113.17 45.2812Z" fill="#1A95D3"/>
<path d="M111.361 43.7734C131.959 19.0526 128.405 -17.8628 103.422 -38.6801C101.86 -39.9815 100.252 -41.1889 98.6036 -42.3031V-38.8479H29.3242V-39.8682C26.2932 -37.4561 23.4632 -34.7027 20.888 -31.613C0.289686 -6.89217 3.84431 30.0232 28.8276 50.8412C53.8109 71.6586 90.7622 68.4942 111.361 43.7734Z" fill="#1A96D4"/>
<path d="M109.55 42.2656C129.324 18.534 125.913 -16.9053 101.928 -36.8902C98.9304 -39.388 95.7529 -41.5266 92.449 -43.3094V-38.8479H35.2965V-41.2565C33.752 -40.2632 32.2496 -39.1877 30.7949 -38.03C27.8854 -35.7146 25.1687 -33.0717 22.6964 -30.1056C2.92217 -6.37332 6.3345 29.0659 30.3183 49.0502C54.302 69.0352 89.7751 65.9972 109.55 42.2656Z" fill="#1B97D5"/>
<path d="M107.739 40.7579C126.69 18.0148 123.42 -15.9477 100.435 -35.0996C97.5622 -37.4937 94.5167 -39.5432 91.3509 -41.2514V-38.8483H41.1316V-41.9014C34.9203 -38.7295 29.2423 -34.2831 24.5044 -28.5975C5.55416 -5.85433 8.8242 28.1081 31.8084 47.26C54.7933 66.4119 88.7882 63.5011 107.739 40.7579Z" fill="#1C98D5"/>
<path d="M105.931 39.2502C124.057 17.4962 120.93 -14.99 98.9442 -33.3089C93.4479 -37.8886 87.2933 -41.1497 80.8699 -43.1252V-38.8481H42.2186V-39.8151C36.2775 -36.7813 30.8467 -32.5283 26.3147 -27.09C8.18854 -5.33532 11.3163 27.1503 33.3017 45.4698C55.2864 63.7887 87.8037 61.0042 105.931 39.2502Z" fill="#1C99D6"/>
<path d="M104.121 37.7425C121.424 16.977 118.439 -14.0325 97.4528 -31.519C92.2058 -35.8901 86.3309 -39.0033 80.1998 -40.8884V-38.8479H61.4078V-42.895C48.8615 -41.8202 36.7761 -35.9647 28.1244 -25.5819C10.8216 -4.81641 13.8077 26.1923 34.7936 43.6788C55.7795 61.166 86.8186 58.508 104.121 37.7425Z" fill="#1D9AD7"/>
<path d="M102.313 36.2348C118.792 16.4584 115.948 -13.0742 95.9613 -29.7283C85.9682 -38.0554 73.5815 -41.5858 61.6328 -40.5628C49.6841 -39.5398 38.1747 -33.9626 29.9347 -24.0745C13.456 -4.29812 16.2999 25.2352 36.2862 41.8886C56.2733 58.5427 85.8342 56.0111 102.313 36.2348Z" fill="#1E9BD7"/>
<path d="M100.504 34.7271C116.158 15.9392 113.457 -12.1166 94.47 -27.9377C84.9762 -35.8482 73.2085 -39.2025 61.858 -38.2306C50.5068 -37.2587 39.5721 -31.9606 31.7452 -22.5663C16.0899 -3.77916 18.7914 24.2773 37.7782 40.0984C56.7657 55.9195 84.8491 53.5149 100.504 34.7271Z" fill="#1E9CD8"/>
<path d="M98.6927 33.2193C113.524 15.4206 110.965 -11.159 92.9767 -26.1477C74.9887 -41.1358 48.3836 -38.8577 33.553 -21.0589C18.7218 -3.26022 21.281 23.3194 39.269 38.3081C57.257 53.2961 83.8615 51.018 98.6927 33.2193Z" fill="#1F9DD9"/>
<path d="M96.8842 31.7116C110.891 14.9014 108.474 -10.2014 91.486 -24.357C74.4968 -38.5127 49.3698 -36.361 35.3634 -19.5508C21.3562 -2.74121 23.7732 22.3616 40.7616 36.5172C57.7501 50.6736 82.8771 48.5219 96.8842 31.7116Z" fill="#209ED9"/>
<path d="M95.0733 30.2038C108.256 14.3827 105.982 -9.24319 89.9921 -22.5665C74.0031 -35.8898 50.3544 -33.8645 37.1713 -18.0434C23.9882 -2.22234 26.2629 21.4036 42.2518 34.7269C58.2414 48.0502 81.8902 46.0249 95.0733 30.2038Z" fill="#209FDA"/>
<path d="M93.265 28.6961C105.624 13.8635 103.492 -8.2856 88.5015 -20.7759C73.5114 -33.2668 51.3409 -31.3679 38.9819 -16.536C26.6222 -1.70338 28.7553 20.4464 43.7454 32.9367C58.7348 45.4269 80.906 43.5287 93.265 28.6961Z" fill="#21A0DA"/>
<path d="M91.4555 27.1883C102.99 13.3449 101 -7.32806 87.0098 -18.986C73.0192 -30.6438 52.3262 -28.8714 40.7913 -15.0279C29.2557 -1.18447 31.2464 19.4885 45.237 31.1464C59.2276 42.8036 79.9206 41.0318 91.4555 27.1883Z" fill="#22A1DB"/>
<path d="M89.6445 25.6806C100.356 12.8257 98.5076 -6.37045 85.5159 -17.1953C72.5248 -28.0201 53.3101 -26.3747 42.5992 -13.5205C31.8876 -0.665491 33.7361 18.5306 46.7272 29.3555C59.7189 40.181 78.933 38.5356 89.6445 25.6806Z" fill="#22A2DC"/>
<path d="M87.836 24.173C97.7235 12.3072 96.0173 -5.41278 84.0251 -15.4046C72.0336 -25.397 54.2963 -23.8781 44.4095 -12.0123C34.522 -0.146451 36.2282 17.5728 48.2204 27.5653C60.2119 37.5578 77.9485 36.0388 87.836 24.173Z" fill="#23A3DC"/>
<path d="M86.0265 22.6653C95.0899 11.7879 93.526 -4.4545 82.5333 -13.6146C71.5406 -22.774 55.2823 -21.3815 46.2189 -10.5048C37.1555 0.37251 38.7194 16.6156 49.7121 25.7751C60.7048 34.9345 76.9631 33.5426 86.0265 22.6653Z" fill="#23A4DD"/>
<path d="M84.219 21.1575C92.4583 11.2693 91.0367 -3.497 81.0436 -11.8241C71.0497 -20.1511 56.2696 -18.885 48.0302 -8.9968C39.7909 0.891373 41.2125 15.6577 51.2056 23.9847C61.1988 32.3111 75.9796 31.0456 84.219 21.1575Z" fill="#24A4DD"/>
<path d="M82.4078 19.6497C89.8231 10.75 88.5438 -2.53945 79.5495 -10.0335C70.5558 -17.5282 57.2532 -16.3891 49.838 -7.48941C42.422 1.4103 43.702 14.6998 52.6956 22.1938C61.69 29.6885 74.9925 28.5494 82.4078 19.6497Z" fill="#25A5DE"/>
<path d="M80.5968 18.142C87.188 10.2315 86.051 -1.58182 78.0562 -8.24347C70.0614 -14.9044 58.237 -13.8925 51.6458 -5.98193C45.0539 1.9293 46.1916 13.7419 54.1864 20.4036C62.1805 27.0652 74.0049 26.0526 80.5968 18.142Z" fill="#25A6DE"/>
<path d="M78.7883 16.6343C84.5561 9.71227 83.5607 -0.623519 76.5654 -6.45281C69.5702 -12.2814 59.2233 -11.3959 53.4562 -4.4738C47.6884 2.44827 48.6838 12.7841 55.679 18.6134C62.6743 24.442 73.0205 23.5564 78.7883 16.6343Z" fill="#26A7DF"/>
<path d="M76.9788 15.1266C81.9226 9.19373 81.0695 0.334086 75.0737 -4.66215C69.0773 -9.65839 60.2093 -8.89925 55.2656 -2.96635C50.3218 2.96656 51.1749 11.8269 57.1707 16.8231C63.1671 21.8187 72.0351 21.0595 76.9788 15.1266Z" fill="#26A7DF"/>
<path d="M75.1688 13.6189C79.2885 8.67445 78.5777 1.29165 73.5807 -2.87223C68.5845 -7.03542 61.1941 -6.40269 57.0744 -1.45825C52.9547 3.48549 53.6655 10.869 58.6625 15.0322C63.6587 19.1961 71.0491 18.5633 75.1688 13.6189Z" fill="#27A8E0"/>
<path d="M73.3608 12.1111C76.6564 8.15587 76.0879 2.24921 72.0905 -1.08162C68.0931 -4.41245 62.1809 -3.90612 58.8853 0.0491497C55.5897 4.00442 56.1582 9.91108 60.1556 13.2419C64.153 16.5727 70.0652 16.0664 73.3608 12.1111Z" fill="#27A9E0"/>
<path d="M71.5501 10.6034C74.0216 7.6366 73.5954 3.20678 70.5975 0.709009C67.5997 -1.78946 63.165 -1.40954 60.6935 1.55726C58.2213 4.52337 58.6481 8.95319 61.646 11.4517C64.6439 13.9494 69.0786 13.5702 71.5501 10.6034Z" fill="#27A9E0"/>
<path d="M69.7416 9.0957C71.3897 7.11806 71.1051 4.16508 69.1068 2.49967C67.1077 0.834253 64.152 1.08707 62.5038 3.0647C60.8557 5.04234 61.1403 7.99601 63.1386 9.66143C65.1377 11.3261 68.0934 11.0733 69.7416 9.0957Z" fill="#28AAE1"/>
<path d="M67.9345 7.58792C68.7586 6.59876 68.6163 5.12261 67.6167 4.28956C66.6179 3.4572 65.1397 3.58361 64.3156 4.57277C63.4915 5.56124 63.6338 7.03808 64.6334 7.87044C65.6322 8.70349 67.1104 8.57708 67.9345 7.58792Z" fill="#28AAE1"/>
</g>
</svg>